<svg width="52" height="48" viewBox="0 0 52 48" fill="none" xmlns="http://www.w3.org/2000/svg">
<path fill-rule="evenodd" clip-rule="evenodd" d="M37.625 10.9219H14.375C11.9745 10.9219 10.0302 12.8797 10.0302 15.2812L10.0156 32.7175C10.0156 35.1197 11.974 37.0781 14.375 37.0781H37.625C40.026 37.0781 41.9844 35.1197 41.9844 32.7188V15.2812C41.9844 12.8803 40.026 10.9219 37.625 10.9219ZM16.1417 19.4068C15.6686 19.1217 15.5162 18.5072 15.8012 18.0341L16.2689 17.2579C16.554 16.7849 17.1685 16.6324 17.6416 16.9175L25.957 21.9277L34.618 16.7092C35.091 16.4242 35.7056 16.5766 35.9906 17.0497L36.46 17.8287C36.7443 18.3006 36.5933 18.9137 36.1223 19.1996L26.0126 25.3354L26.0122 25.3346L26.0037 25.3489L16.1417 19.4068Z" fill="#1D2A4E"/>
</svg>
