<svg width="48" height="48" viewBox="0 0 48 48" fill="none" xmlns="http://www.w3.org/2000/svg">
<path fill-rule="evenodd" clip-rule="evenodd" d="M15.6311 22.1178C17.8711 26.52 21.48 30.1133 25.8822 32.3689L29.3044 28.9467C29.7244 28.5267 30.3467 28.3867 30.8911 28.5733C32.6333 29.1489 34.5156 29.46 36.4444 29.46C37.3 29.46 38 30.16 38 31.0156V36.4444C38 37.3 37.3 38 36.4444 38C21.8378 38 10 26.1622 10 11.5556C10 10.7 10.7 10 11.5556 10H17C17.8556 10 18.5556 10.7 18.5556 11.5556C18.5556 13.5 18.8667 15.3667 19.4422 17.1089C19.6133 17.6533 19.4889 18.26 19.0533 18.6956L15.6311 22.1178Z" fill="#1D2A4E"/>
</svg>
