<svg width="53" height="44" viewBox="0 0 53 44" fill="none" xmlns="http://www.w3.org/2000/svg">
<path fill-rule="evenodd" clip-rule="evenodd" d="M36.0808 14.2893L36.0231 14.2516C34.8315 13.1393 33.4285 12.6114 31.8141 12.6868L31.7565 12.5737L31.7949 12.5549C33.2556 12.2344 34.1204 11.8951 34.3895 11.518C34.4664 11.2164 34.3703 11.0467 34.0435 11.009C33.3132 11.1033 32.6213 11.2541 32.0255 11.4992C32.7943 11.009 33.0826 10.6697 32.9096 10.5C32.1601 10.5189 31.3336 10.8959 30.488 11.65C30.7955 11.1221 30.93 10.8205 30.8532 10.7828C30.4303 11.0467 30.0844 11.3483 29.7769 11.6688C29.1234 12.3852 28.6045 13.045 28.2009 13.6483L28.1817 13.686C27.1631 15.3261 26.4327 16.9663 26.0099 18.6441L25.8562 18.7761L25.8177 18.7949C25.2027 18.0408 24.4532 17.3999 23.5691 16.8908C22.5312 16.2122 21.3012 15.5901 19.879 14.9679C18.3414 14.1762 16.7655 13.5352 15.1895 13.0262C15.1703 14.7794 16.0544 16.1556 17.7649 17.1736V17.1925C17.1691 17.1925 16.5733 17.2867 15.9967 17.4564C16.112 19.0777 17.2844 20.19 19.4946 20.7932L19.4754 20.8309C18.6105 20.7744 17.8994 21.076 17.342 21.6981C18.0724 23.0932 19.3601 23.753 21.2243 23.7153C20.8592 23.9038 20.5709 24.0923 20.3787 24.3186C20.0327 24.6767 19.9174 25.0915 20.0327 25.5628C20.4363 26.2792 21.1474 26.5997 22.2045 26.5431L22.2622 26.6185L22.2429 26.6562C20.4171 28.5037 18.2069 29.3332 15.6315 29.1635L15.5931 29.1824C14.0171 29.1635 12.3258 28.4283 10.5 26.9578C12.3258 29.5406 14.7667 31.4069 17.7841 32.5946C21.2243 33.7069 24.6838 33.8011 28.124 32.8397H28.1817C31.5258 31.8971 34.3511 29.9365 36.6958 26.9956C37.7721 25.4685 38.4447 23.9981 38.7138 22.5842C40.4628 22.6407 41.712 22.1506 42.5 21.0949L42.4808 21.0572C41.885 21.2645 40.7511 21.208 39.079 20.8686V20.6801C40.924 20.4727 42.0195 19.8883 42.3655 18.9269C41.0778 19.417 39.8093 19.4359 38.5601 18.9646C38.3294 17.2679 37.503 15.7032 36.0808 14.2893Z" fill="#1D2A4E"/>
</svg>
